<?xml version="1.0" standalone="no"?>
<!DOCTYPE svg PUBLIC "-//W3C//DTD SVG 20010904//EN"
 "http://www.w3.org/TR/2001/REC-SVG-20010904/DTD/svg10.dtd">
<svg version="1.0" xmlns="http://www.w3.org/2000/svg"
 width="1024.000000pt" height="1024.000000pt" viewBox="0 0 1024.000000 1024.000000"
 preserveAspectRatio="xMidYMid meet">

<g transform="translate(0.000000,1024.000000) scale(0.100000,-0.100000)"
fill="#000000" stroke="none">
<path d="M4730 9044 c-927 -93 -1750 -479 -2406 -1129 -219 -216 -334 -357
-509 -620 -338 -508 -555 -1088 -630 -1685 -37 -293 -37 -737 -1 -1010 82
-614 306 -1220 633 -1720 395 -601 900 -1068 1518 -1403 325 -176 775 -334
1118 -392 229 -38 323 -47 583 -52 299 -6 453 3 684 42 540 90 1027 281 1488
581 258 169 416 298 658 539 328 327 562 647 773 1058 123 241 220 491 300
775 254 899 174 1894 -220 2744 -272 587 -681 1095 -1194 1482 -615 465 -1273
720 -2038 791 -198 18 -572 18 -757 -1z m452 -1449 c10 -22 5 -39 -39 -132
-116 -247 -98 -386 82 -634 125 -171 195 -343 195 -477 0 -59 -36 -186 -70
-251 -63 -118 -193 -251 -246 -251 -14 0 -30 10 -40 25 -15 23 -14 29 34 132
74 160 87 249 57 368 -21 80 -52 139 -144 270 -102 145 -124 185 -157 280 -37
107 -39 255 -5 355 39 112 114 219 209 296 64 52 106 59 124 19z m-738 -461
c22 -22 21 -32 -19 -115 -44 -93 -58 -163 -45 -228 14 -74 29 -105 112 -227
103 -151 122 -203 123 -330 0 -96 -2 -103 -38 -177 -25 -50 -58 -96 -98 -137
-64 -64 -95 -78 -127 -61 -38 20 -37 49 2 125 44 85 61 175 46 241 -14 61 -40
113 -106 207 -179 254 -175 467 13 655 67 67 105 80 137 47z m1468 -9 c10 -22
7 -36 -25 -103 -46 -94 -60 -164 -47 -231 14 -74 31 -108 113 -228 88 -129
117 -201 124 -303 9 -128 -46 -250 -162 -359 -63 -60 -98 -65 -124 -19 -14 25
-13 31 23 108 45 95 57 189 36 266 -7 26 -52 106 -100 179 -104 159 -125 216
-125 341 0 84 2 95 39 168 52 107 149 206 201 206 28 0 38 -5 47 -25z m1250
-1548 c42 -18 87 -63 104 -104 18 -41 18 -114 1 -156 -19 -44 -89 -105 -129
-112 -18 -3 -938 -4 -2044 -3 l-2010 3 -36 24 c-56 39 -82 84 -86 156 -7 114
62 195 177 205 31 3 941 4 2023 3 1650 -2 1973 -5 2000 -16z m-190 -642 c-3
-86 -43 -269 -84 -384 -140 -400 -426 -746 -799 -970 -665 -398 -1513 -347
-2124 127 -323 250 -559 606 -655 987 -31 124 -55 278 -46 300 5 13 221 15
1858 13 l1853 -3 -3 -70z m110 -1082 c10 -9 18 -29 18 -46 0 -25 -20 -48 -121
-146 -67 -64 -140 -129 -163 -144 -50 -34 -116 -97 -116 -111 0 -6 21 -32 47
-58 46 -46 49 -48 105 -48 72 0 121 -20 172 -68 49 -47 76 -104 76 -165 0 -63
-20 -100 -67 -122 -80 -38 -199 15 -260 116 -29 47 -33 62 -33 124 l0 71 -50
49 c-35 34 -51 44 -54 34 -3 -8 -17 -50 -31 -94 -37 -112 -90 -208 -140 -254
-79 -73 -171 -79 -232 -15 -94 100 -23 241 169 333 46 22 105 45 131 51 75 19
75 29 -1 101 -37 35 -85 79 -106 98 l-39 33 34 34 35 34 77 -89 c119 -136 108
-131 159 -76 23 26 48 57 53 69 12 26 41 62 172 204 100 108 125 121 165 85z
m-2753 -548 c287 -123 614 -178 925 -155 269 19 446 64 734 187 9 4 12 -22 12
-109 0 -130 -10 -169 -53 -215 -62 -66 -35 -64 -842 -61 l-730 3 -47 27 c-72
43 -88 86 -88 236 0 67 2 122 4 122 2 0 41 -16 85 -35z"/>
<path d="M4958 4655 c-11 -24 -8 -30 42 -80 l54 -55 -49 -45 c-28 -24 -54 -44
-58 -45 -4 0 -30 20 -56 45 -49 45 -77 55 -99 33 -22 -22 -12 -52 35 -100 l47
-48 -48 -49 -49 -50 -56 50 c-68 61 -99 64 -115 12 -6 -18 3 -33 43 -76 l51
-53 -41 -40 c-57 -55 -64 -70 -44 -100 23 -36 50 -30 109 26 l52 49 49 -49 49
-50 -47 -48 c-47 -48 -57 -78 -35 -100 24 -24 58 -12 109 35 l50 46 49 -48 49
-49 -49 -52 c-28 -29 -50 -57 -50 -61 0 -19 32 -53 49 -53 11 0 41 20 69 45
27 25 54 45 58 45 5 0 29 -21 55 -46 39 -39 52 -45 73 -40 16 4 28 16 32 32 6
22 -2 34 -45 78 l-51 52 49 48 49 49 29 -21 c15 -11 39 -32 52 -46 28 -29 75
-35 85 -10 12 32 5 49 -41 96 l-47 48 49 50 49 49 52 -49 c55 -52 82 -61 108
-34 26 25 19 44 -34 97 -27 27 -50 51 -50 53 0 2 18 21 41 41 22 20 45 45 50
55 14 27 2 57 -27 64 -20 5 -35 -3 -80 -46 l-55 -52 -53 48 -52 49 48 50 c48
51 59 80 36 103 -23 23 -54 12 -98 -33 -24 -25 -49 -45 -55 -45 -5 1 -32 21
-60 46 l-49 46 52 49 c55 51 58 59 42 90 -18 33 -56 23 -110 -27 l-50 -47 -50
47 c-57 54 -94 61 -112 21z m214 -347 l-52 -53 -52 53 -53 53 55 49 55 49 50
-50 50 -49 -53 -52z m-167 -68 c27 -27 47 -51 44 -52 -2 -2 -25 -23 -51 -47
l-47 -44 -50 42 c-28 24 -51 48 -51 54 0 10 89 96 100 97 3 0 28 -22 55 -50z
m363 -14 l32 -30 -47 -48 c-26 -26 -52 -48 -58 -48 -6 0 -32 22 -58 48 l-48
49 51 47 c57 54 47 55 128 -18z m-196 -248 l-52 -53 -52 53 -53 53 55 49 55
50 50 -50 50 -50 -53 -52z"/>
<path d="M6415 3271 c-93 -44 -144 -87 -167 -137 -10 -25 -18 -55 -16 -67 3
-20 5 -19 25 13 23 37 131 144 193 192 45 35 39 35 -35 -1z"/>
<path d="M6435 3208 c-94 -79 -165 -163 -165 -195 0 -30 83 33 156 116 61 71
124 161 111 161 -2 0 -48 -37 -102 -82z"/>
<path d="M6513 3177 c-23 -35 -77 -96 -119 -137 l-77 -73 36 6 c49 8 90 38
128 93 30 44 84 163 76 170 -1 2 -22 -25 -44 -59z"/>
</g>
</svg>
